<?xml version="1.0"?>
<svg xmlns="http://www.w3.org/2000/svg" viewBox="-12 14 24 24">
    <path d="M 15.28125 4 C 15.017467 4.0197988 14.754875 4.123375 14.46875 4.28125 C 13.21375 4.97325 10.21025 6.726 8.78125 7.625 C 8.29725 7.909 7.875 8.35575 7.875 8.96875 C 7.875 9.75975 8.487 10.40625 9.25 10.40625 C 9.544 10.40625 9.77525 10.258 10.03125 10.125 C 10.66125 9.808 12.1775 9.02275 13.1875 8.46875 C 14.2915 7.86375 14.96875 8.5625 14.96875 8.5625 C 14.96875 8.5625 18.9405 12.66625 20.0625 13.78125 C 20.7905 14.50625 21.805 14.167 22.125 14.125 C 22.445 14.085 24 13.78125 24 13.78125 L 24 6.21875 C 24 6.21875 21.12775 6.95975 20.21875 7.09375 C 19.78475 7.15775 19.25 6.90625 19.25 6.90625 C 19.25 6.90625 18.1025 5.876 16.8125 4.75 C 16.15875 4.17875 15.720889 3.967002 15.28125 4 z M 9.03125 4.09375 C 7.56225 4.09375 4.5 6.1875 4.5 6.1875 C 4.5 6.1875 3.615 6.77 2.375 6.25 L 0 5.40625 L 0 14 C 0 14 0.66725 14.20975 1.28125 14.46875 C 1.42125 14.05975 1.65675 13.687 1.96875 13.375 C 2.98675 12.369 4.66675 12.35475 5.59375 13.34375 C 5.87275 13.64275 6.0875 14.01225 6.1875 14.40625 C 6.5615 14.52625 6.88325 14.74025 7.15625 15.03125 C 7.43525 15.32825 7.61775 15.69875 7.71875 16.09375 C 8.09275 16.21375 8.44575 16.42675 8.71875 16.71875 C 9.02575 17.04575 9.2155 17.444 9.3125 17.875 C 9.7015 17.993 10.05975 18.196 10.34375 18.5 C 10.89875 19.092 11.08975 19.9105 10.96875 20.6875 C 10.96875 20.6875 11.31825 21.0915 11.53125 21.3125 C 11.94225 21.7385 12.62025 21.7385 13.03125 21.3125 C 13.44125 20.8865 13.44225 20.177 13.03125 19.75 C 13.01725 19.736 11.51925 18.17325 11.65625 18.03125 C 11.79325 17.88925 13.6525 19.9015 13.6875 19.9375 C 14.0975 20.3645 14.7765 20.3635 15.1875 19.9375 C 15.5975 19.5115 15.5985 18.83325 15.1875 18.40625 C 15.1685 18.38725 13.4545 16.51925 13.5625 16.40625 C 13.6845 16.27925 15.77725 18.5 15.78125 18.5 C 16.19425 18.888 16.82075 18.88175 17.21875 18.46875 C 17.60375 18.06875 17.62025 17.43 17.28125 17 C 17.27425 16.975 15.54825 15.0495 15.65625 14.9375 C 15.76425 14.8255 17.52625 16.65225 17.53125 16.65625 C 17.94125 17.08325 18.62025 17.08225 19.03125 16.65625 C 19.44225 16.22925 19.44225 15.52075 19.03125 15.09375 C 19.02525 15.08775 16.72225 12.7195 14.40625 10.3125 C 14.40625 10.3125 13.69925 9.582 12.78125 10 C 12.13725 10.293 11.3125 10.697 10.6875 11 C 10.0005 11.372 9.40625 11.5 9.28125 11.5 C 7.95625 11.5 6.875 10.374 6.875 9 C 6.875 8.109 7.35125 7.34625 8.03125 6.90625 C 8.98725 6.22025 11.1875 5 11.1875 5 C 11.1875 5 10.50125 4.09375 9.03125 4.09375 z M 3.8125 13.75 C 3.446125 13.759875 3.0475 13.92425 2.75 14.21875 C 2.158 14.80875 1.7835 15.874 2.3125 16.5 C 2.8405 17.126 3.44225 16.735 3.90625 16.625 C 3.77825 17.1 3.401 17.5655 3.875 18.1875 C 4.348 18.8115 5.00475 18.4235 5.46875 18.3125 C 5.33975 18.7875 4.9805 19.26575 5.4375 19.84375 C 5.8975 20.42175 6.628 20.12875 7.125 19.96875 C 6.933 20.48175 6.5345 21.03425 7.0625 21.65625 C 7.5895 22.27825 8.81025 21.99525 9.40625 21.40625 C 9.99925 20.81825 10.05325 19.8705 9.53125 19.3125 C 9.17125 18.9285 8.621 18.84 8.125 19 C 8.318 18.486 8.27625 17.92525 7.90625 17.53125 C 7.57325 17.17625 7.088 17.0775 6.625 17.1875 C 6.754 16.7125 6.67875 16.20175 6.34375 15.84375 C 6.01075 15.48975 5.5255 15.39 5.0625 15.5 C 5.1905 15.025 5.11525 14.51425 4.78125 14.15625 C 4.51925 13.87725 4.178875 13.740125 3.8125 13.75 z" transform="translate(-12 14)"/>
</svg>
